<mxfile host="app.diagrams.net" modified="2024-02-05T08:35:31.453Z" agent="Mozilla/5.0 (Windows NT 10.0; Win64; x64) AppleWebKit/537.36 (KHTML, like Gecko) Chrome/121.0.0.0 Safari/537.36" etag="e5iKpbnjwuPIWVKtd6Q-" version="23.1.1" type="github">
  <diagram name="Страница — 1" id="DTZOTg3JHmTk432pB6Y-">
    <mxGraphModel dx="2261" dy="780" grid="1" gridSize="10" guides="1" tooltips="1" connect="1" arrows="1" fold="1" page="1" pageScale="1" pageWidth="827" pageHeight="1169" math="0" shadow="0">
      <root>
        <mxCell id="0" />
        <mxCell id="1" parent="0" />
        <mxCell id="cVL8eehj_bn7ZX0F7768-22" style="edgeStyle=orthogonalEdgeStyle;rounded=0;orthogonalLoop=1;jettySize=auto;html=1;entryX=0.5;entryY=0;entryDx=0;entryDy=0;" edge="1" parent="1" source="cVL8eehj_bn7ZX0F7768-2" target="cVL8eehj_bn7ZX0F7768-3">
          <mxGeometry relative="1" as="geometry" />
        </mxCell>
        <mxCell id="cVL8eehj_bn7ZX0F7768-2" value="Мобильное приложение" style="ellipse;whiteSpace=wrap;html=1;aspect=fixed;" vertex="1" parent="1">
          <mxGeometry x="360" y="60" width="120" height="120" as="geometry" />
        </mxCell>
        <mxCell id="cVL8eehj_bn7ZX0F7768-10" style="edgeStyle=orthogonalEdgeStyle;rounded=0;orthogonalLoop=1;jettySize=auto;html=1;entryX=0.5;entryY=0;entryDx=0;entryDy=0;" edge="1" parent="1" source="cVL8eehj_bn7ZX0F7768-3" target="cVL8eehj_bn7ZX0F7768-5">
          <mxGeometry relative="1" as="geometry" />
        </mxCell>
        <mxCell id="cVL8eehj_bn7ZX0F7768-3" value="GraphQL" style="whiteSpace=wrap;html=1;aspect=fixed;" vertex="1" parent="1">
          <mxGeometry x="360" y="280" width="120" height="120" as="geometry" />
        </mxCell>
        <mxCell id="cVL8eehj_bn7ZX0F7768-4" value="Calculate Price" style="rounded=1;whiteSpace=wrap;html=1;" vertex="1" parent="1">
          <mxGeometry x="30" y="330" width="120" height="80" as="geometry" />
        </mxCell>
        <mxCell id="cVL8eehj_bn7ZX0F7768-11" style="edgeStyle=orthogonalEdgeStyle;rounded=0;orthogonalLoop=1;jettySize=auto;html=1;exitX=0.75;exitY=0;exitDx=0;exitDy=0;entryX=0.5;entryY=1;entryDx=0;entryDy=0;" edge="1" parent="1" source="cVL8eehj_bn7ZX0F7768-5" target="cVL8eehj_bn7ZX0F7768-3">
          <mxGeometry relative="1" as="geometry" />
        </mxCell>
        <mxCell id="cVL8eehj_bn7ZX0F7768-5" value="Search Drivers" style="rounded=1;whiteSpace=wrap;html=1;" vertex="1" parent="1">
          <mxGeometry x="550" y="490" width="120" height="80" as="geometry" />
        </mxCell>
        <mxCell id="cVL8eehj_bn7ZX0F7768-6" value="Drivers Locations" style="rounded=1;whiteSpace=wrap;html=1;" vertex="1" parent="1">
          <mxGeometry x="370" y="770" width="120" height="80" as="geometry" />
        </mxCell>
        <mxCell id="cVL8eehj_bn7ZX0F7768-7" style="edgeStyle=orthogonalEdgeStyle;rounded=0;orthogonalLoop=1;jettySize=auto;html=1;entryX=0.583;entryY=1.013;entryDx=0;entryDy=0;entryPerimeter=0;" edge="1" parent="1" source="cVL8eehj_bn7ZX0F7768-6" target="cVL8eehj_bn7ZX0F7768-5">
          <mxGeometry relative="1" as="geometry" />
        </mxCell>
        <mxCell id="cVL8eehj_bn7ZX0F7768-8" style="edgeStyle=orthogonalEdgeStyle;rounded=0;orthogonalLoop=1;jettySize=auto;html=1;entryX=0.418;entryY=1.022;entryDx=0;entryDy=0;entryPerimeter=0;exitX=0.342;exitY=-0.037;exitDx=0;exitDy=0;exitPerimeter=0;" edge="1" parent="1" source="cVL8eehj_bn7ZX0F7768-6" target="cVL8eehj_bn7ZX0F7768-5">
          <mxGeometry relative="1" as="geometry">
            <mxPoint x="90" y="720" as="sourcePoint" />
            <mxPoint x="260" y="580" as="targetPoint" />
            <Array as="points">
              <mxPoint x="411" y="690" />
              <mxPoint x="410" y="690" />
              <mxPoint x="410" y="620" />
              <mxPoint x="600" y="620" />
            </Array>
          </mxGeometry>
        </mxCell>
        <mxCell id="cVL8eehj_bn7ZX0F7768-9" style="edgeStyle=orthogonalEdgeStyle;rounded=0;orthogonalLoop=1;jettySize=auto;html=1;exitX=0.75;exitY=0;exitDx=0;exitDy=0;entryX=0.175;entryY=1.013;entryDx=0;entryDy=0;entryPerimeter=0;" edge="1" parent="1" source="cVL8eehj_bn7ZX0F7768-6" target="cVL8eehj_bn7ZX0F7768-5">
          <mxGeometry relative="1" as="geometry">
            <Array as="points">
              <mxPoint x="450" y="770" />
              <mxPoint x="450" y="710" />
              <mxPoint x="571" y="710" />
            </Array>
          </mxGeometry>
        </mxCell>
        <mxCell id="cVL8eehj_bn7ZX0F7768-12" style="edgeStyle=orthogonalEdgeStyle;rounded=0;orthogonalLoop=1;jettySize=auto;html=1;" edge="1" parent="1" source="cVL8eehj_bn7ZX0F7768-4" target="cVL8eehj_bn7ZX0F7768-3">
          <mxGeometry relative="1" as="geometry">
            <mxPoint x="350" y="305" as="targetPoint" />
            <Array as="points">
              <mxPoint x="190" y="370" />
              <mxPoint x="190" y="370" />
            </Array>
          </mxGeometry>
        </mxCell>
        <mxCell id="cVL8eehj_bn7ZX0F7768-19" style="edgeStyle=orthogonalEdgeStyle;rounded=0;orthogonalLoop=1;jettySize=auto;html=1;" edge="1" parent="1" source="cVL8eehj_bn7ZX0F7768-16" target="cVL8eehj_bn7ZX0F7768-2">
          <mxGeometry relative="1" as="geometry" />
        </mxCell>
        <mxCell id="cVL8eehj_bn7ZX0F7768-16" value="MAP SERVICE, PROXY??" style="rounded=1;whiteSpace=wrap;html=1;" vertex="1" parent="1">
          <mxGeometry x="160" y="80" width="120" height="80" as="geometry" />
        </mxCell>
        <mxCell id="cVL8eehj_bn7ZX0F7768-20" style="edgeStyle=orthogonalEdgeStyle;rounded=0;orthogonalLoop=1;jettySize=auto;html=1;" edge="1" parent="1" source="cVL8eehj_bn7ZX0F7768-17" target="cVL8eehj_bn7ZX0F7768-16">
          <mxGeometry relative="1" as="geometry" />
        </mxCell>
        <mxCell id="cVL8eehj_bn7ZX0F7768-17" value="GeoPositions" style="rounded=1;whiteSpace=wrap;html=1;" vertex="1" parent="1">
          <mxGeometry x="-110" y="80" width="120" height="80" as="geometry" />
        </mxCell>
        <mxCell id="cVL8eehj_bn7ZX0F7768-24" style="edgeStyle=orthogonalEdgeStyle;rounded=0;orthogonalLoop=1;jettySize=auto;html=1;entryX=0.005;entryY=0.35;entryDx=0;entryDy=0;entryPerimeter=0;endArrow=none;endFill=0;" edge="1" parent="1" source="cVL8eehj_bn7ZX0F7768-16" target="cVL8eehj_bn7ZX0F7768-3">
          <mxGeometry relative="1" as="geometry">
            <Array as="points">
              <mxPoint x="220" y="322" />
            </Array>
          </mxGeometry>
        </mxCell>
        <mxCell id="cVL8eehj_bn7ZX0F7768-25" value="ROUTES, TRAFFICS, TIME" style="edgeLabel;html=1;align=center;verticalAlign=middle;resizable=0;points=[];" vertex="1" connectable="0" parent="cVL8eehj_bn7ZX0F7768-24">
          <mxGeometry x="-0.0843" y="3" relative="1" as="geometry">
            <mxPoint x="-3" y="-9" as="offset" />
          </mxGeometry>
        </mxCell>
        <mxCell id="cVL8eehj_bn7ZX0F7768-29" style="edgeStyle=orthogonalEdgeStyle;rounded=0;orthogonalLoop=1;jettySize=auto;html=1;entryX=0;entryY=0.5;entryDx=0;entryDy=0;" edge="1" parent="1" source="cVL8eehj_bn7ZX0F7768-28" target="cVL8eehj_bn7ZX0F7768-17">
          <mxGeometry relative="1" as="geometry" />
        </mxCell>
        <mxCell id="cVL8eehj_bn7ZX0F7768-28" value="координаты телефона,&lt;br&gt;ближайшие вайфай сигналы,&lt;br&gt;сотовые вышки" style="shape=process;whiteSpace=wrap;html=1;backgroundOutline=1;" vertex="1" parent="1">
          <mxGeometry x="-370" y="170" width="230" height="80" as="geometry" />
        </mxCell>
        <mxCell id="cVL8eehj_bn7ZX0F7768-31" style="edgeStyle=orthogonalEdgeStyle;rounded=0;orthogonalLoop=1;jettySize=auto;html=1;entryX=0;entryY=0.5;entryDx=0;entryDy=0;" edge="1" parent="1" source="cVL8eehj_bn7ZX0F7768-30" target="cVL8eehj_bn7ZX0F7768-4">
          <mxGeometry relative="1" as="geometry" />
        </mxCell>
        <mxCell id="cVL8eehj_bn7ZX0F7768-30" value="загруженность класса автомобиля (эконом, комфорт)&lt;br&gt;соотношение спроса и предложений&lt;br&gt;Время езды&lt;br&gt;трафик дорог" style="shape=process;whiteSpace=wrap;html=1;backgroundOutline=1;" vertex="1" parent="1">
          <mxGeometry x="-160" y="450" width="220" height="100" as="geometry" />
        </mxCell>
        <mxCell id="cVL8eehj_bn7ZX0F7768-33" style="edgeStyle=orthogonalEdgeStyle;rounded=0;orthogonalLoop=1;jettySize=auto;html=1;" edge="1" parent="1" source="cVL8eehj_bn7ZX0F7768-32" target="cVL8eehj_bn7ZX0F7768-5">
          <mxGeometry relative="1" as="geometry" />
        </mxCell>
        <mxCell id="cVL8eehj_bn7ZX0F7768-32" value="поиск маленькой области&lt;br&gt;поиск большой области&lt;br&gt;ожидание 3 секунды" style="shape=process;whiteSpace=wrap;html=1;backgroundOutline=1;" vertex="1" parent="1">
          <mxGeometry x="220" y="490" width="250" height="80" as="geometry" />
        </mxCell>
      </root>
    </mxGraphModel>
  </diagram>
</mxfile>
